<svg width="40" height="48" viewBox="0 0 40 48" fill="none" xmlns="http://www.w3.org/2000/svg">
<rect width="39.67" height="48" rx="19.835" fill="#272A2D"/>
<rect x="0.5" y="0.5" width="38.67" height="47" rx="19.335" stroke="white" stroke-opacity="0.05"/>
<path d="M17.7517 29C17.2934 29 16.901 28.8368 16.5746 28.5104C16.2482 28.184 16.085 27.7917 16.085 27.3333V17.3333C16.085 16.875 16.2482 16.4826 16.5746 16.1562C16.901 15.8299 17.2934 15.6667 17.7517 15.6667H25.2517C25.71 15.6667 26.1024 15.8299 26.4288 16.1562C26.7552 16.4826 26.9184 16.875 26.9184 17.3333V27.3333C26.9184 27.7917 26.7552 28.184 26.4288 28.5104C26.1024 28.8368 25.71 29 25.2517 29H17.7517ZM17.7517 27.3333H25.2517V17.3333H17.7517V27.3333ZM14.4184 32.3333C13.96 32.3333 13.5677 32.1701 13.2413 31.8437C12.9149 31.5174 12.7517 31.125 12.7517 30.6667V19H14.4184V30.6667H23.585V32.3333H14.4184ZM17.7517 27.3333V17.3333V27.3333Z" fill="#E2BFB3"/>
</svg>
