<svg width="48" height="48" viewBox="0 0 48 48" fill="none" xmlns="http://www.w3.org/2000/svg">
<rect x="0.5" y="0.5" width="47" height="47" rx="23.5" stroke="#272A2D"/>
<path d="M21.9166 29C21.4583 29 21.0659 28.8368 20.7395 28.5104C20.4132 28.184 20.25 27.7917 20.25 27.3333V17.3333C20.25 16.875 20.4132 16.4826 20.7395 16.1562C21.0659 15.8299 21.4583 15.6667 21.9166 15.6667H29.4166C29.875 15.6667 30.2673 15.8299 30.5937 16.1562C30.9201 16.4826 31.0833 16.875 31.0833 17.3333V27.3333C31.0833 27.7917 30.9201 28.184 30.5937 28.5104C30.2673 28.8368 29.875 29 29.4166 29H21.9166ZM21.9166 27.3333H29.4166V17.3333H21.9166V27.3333ZM18.5833 32.3333C18.125 32.3333 17.7326 32.1701 17.4062 31.8437C17.0798 31.5174 16.9166 31.125 16.9166 30.6667V19H18.5833V30.6667H27.75V32.3333H18.5833ZM21.9166 27.3333V17.3333V27.3333Z" fill="#E2BFB3"/>
</svg>
