<svg width="48" height="48" viewBox="0 0 48 48" fill="none" xmlns="http://www.w3.org/2000/svg">
<rect x="0.5" y="0.5" width="47" height="47" rx="23.5" stroke="#272A2D"/>
<path d="M18.1667 29.8333H19.3542L27.5 21.6875L26.3125 20.5L18.1667 28.6458V29.8333ZM16.5 31.5V27.9583L27.5 16.9792C27.6667 16.8264 27.8507 16.7083 28.0521 16.625C28.2535 16.5417 28.4653 16.5 28.6875 16.5C28.9097 16.5 29.125 16.5417 29.3333 16.625C29.5417 16.7083 29.7222 16.8333 29.875 17L31.0208 18.1667C31.1875 18.3194 31.309 18.5 31.3854 18.7083C31.4618 18.9167 31.5 19.125 31.5 19.3333C31.5 19.5556 31.4618 19.7674 31.3854 19.9688C31.309 20.1701 31.1875 20.3542 31.0208 20.5208L20.0417 31.5H16.5ZM29.8333 19.3333L28.6667 18.1667L29.8333 19.3333ZM26.8958 21.1042L26.3125 20.5L27.5 21.6875L26.8958 21.1042Z" fill="#E2BFB3"/>
</svg>
