<svg width="40" height="48" viewBox="0 0 40 48" fill="none" xmlns="http://www.w3.org/2000/svg">
<rect width="39.67" height="48" rx="19.835" fill="#272A2D"/>
<rect x="0.5" y="0.5" width="38.67" height="47" rx="19.335" stroke="white" stroke-opacity="0.05"/>
<path d="M14.0016 29.8333H15.1891L23.335 21.6875L22.1475 20.5L14.0016 28.6458V29.8333ZM12.335 31.5V27.9583L23.335 16.9792C23.5016 16.8264 23.6857 16.7083 23.887 16.625C24.0884 16.5417 24.3002 16.5 24.5225 16.5C24.7447 16.5 24.96 16.5417 25.1683 16.625C25.3766 16.7083 25.5572 16.8333 25.71 17L26.8558 18.1667C27.0225 18.3194 27.144 18.5 27.2204 18.7083C27.2968 18.9167 27.335 19.125 27.335 19.3333C27.335 19.5556 27.2968 19.7674 27.2204 19.9688C27.144 20.1701 27.0225 20.3542 26.8558 20.5208L15.8766 31.5H12.335ZM25.6683 19.3333L24.5016 18.1667L25.6683 19.3333ZM22.7308 21.1042L22.1475 20.5L23.335 21.6875L22.7308 21.1042Z" fill="#E2BFB3"/>
</svg>
